<mxfile host="app.diagrams.net" modified="2023-05-21T17:51:11.688Z" agent="Mozilla/5.0 (Windows NT 10.0; Win64; x64) AppleWebKit/537.36 (KHTML, like Gecko) Chrome/113.0.0.0 Safari/537.36" etag="sL5VFp1QNLlFyxRQkTeE" version="21.3.2" type="github">
  <diagram name="Página-1" id="fx4VnRhrHrnyvEDLhqIN">
    <mxGraphModel dx="1434" dy="768" grid="0" gridSize="10" guides="1" tooltips="1" connect="1" arrows="1" fold="1" page="1" pageScale="1" pageWidth="1169" pageHeight="827" math="0" shadow="0">
      <root>
        <mxCell id="0" />
        <mxCell id="1" parent="0" />
        <mxCell id="pi2D3oXFRqkSUvg6BYlz-2" value="Inicialización" style="rounded=1;whiteSpace=wrap;html=1;" parent="1" vertex="1">
          <mxGeometry x="219" y="122" width="120" height="60" as="geometry" />
        </mxCell>
        <mxCell id="pi2D3oXFRqkSUvg6BYlz-3" value="Monitoreo" style="rounded=1;whiteSpace=wrap;html=1;" parent="1" vertex="1">
          <mxGeometry x="506" y="122" width="120" height="60" as="geometry" />
        </mxCell>
        <mxCell id="pi2D3oXFRqkSUvg6BYlz-4" value="" style="endArrow=open;endFill=1;endSize=12;html=1;rounded=0;exitX=1;exitY=0.5;exitDx=0;exitDy=0;entryX=0;entryY=0.5;entryDx=0;entryDy=0;" parent="1" source="pi2D3oXFRqkSUvg6BYlz-2" target="pi2D3oXFRqkSUvg6BYlz-3" edge="1">
          <mxGeometry width="160" relative="1" as="geometry">
            <mxPoint x="346" y="154" as="sourcePoint" />
            <mxPoint x="506" y="154" as="targetPoint" />
          </mxGeometry>
        </mxCell>
        <mxCell id="pi2D3oXFRqkSUvg6BYlz-5" value="Sensor activado" style="text;whiteSpace=wrap;html=1;" parent="1" vertex="1">
          <mxGeometry x="374" y="125" width="114" height="36" as="geometry" />
        </mxCell>
        <mxCell id="pi2D3oXFRqkSUvg6BYlz-7" value="Alerta de humedad alto" style="rounded=1;whiteSpace=wrap;html=1;" parent="1" vertex="1">
          <mxGeometry x="358" y="285" width="120" height="60" as="geometry" />
        </mxCell>
        <mxCell id="pi2D3oXFRqkSUvg6BYlz-8" value="Alerta de humedad baja" style="rounded=1;whiteSpace=wrap;html=1;" parent="1" vertex="1">
          <mxGeometry x="682" y="285" width="120" height="60" as="geometry" />
        </mxCell>
        <mxCell id="YTvPQhcSVhC1iMUmIEsR-1" value="Se&amp;nbsp; inicia el programa" style="html=1;verticalAlign=bottom;startArrow=circle;startFill=1;endArrow=open;startSize=6;endSize=8;edgeStyle=elbowEdgeStyle;elbow=vertical;curved=0;rounded=0;entryX=0;entryY=0.5;entryDx=0;entryDy=0;" edge="1" parent="1" target="pi2D3oXFRqkSUvg6BYlz-2">
          <mxGeometry width="80" relative="1" as="geometry">
            <mxPoint x="82" y="152" as="sourcePoint" />
            <mxPoint x="181" y="154" as="targetPoint" />
          </mxGeometry>
        </mxCell>
        <mxCell id="YTvPQhcSVhC1iMUmIEsR-2" value="" style="endArrow=open;endFill=1;endSize=12;html=1;rounded=0;exitX=1;exitY=0.5;exitDx=0;exitDy=0;entryX=0.5;entryY=0;entryDx=0;entryDy=0;" edge="1" parent="1" source="pi2D3oXFRqkSUvg6BYlz-3" target="pi2D3oXFRqkSUvg6BYlz-3">
          <mxGeometry width="160" relative="1" as="geometry">
            <mxPoint x="644" y="151.5" as="sourcePoint" />
            <mxPoint x="436" y="80" as="targetPoint" />
            <Array as="points">
              <mxPoint x="718" y="152" />
              <mxPoint x="718" y="87" />
              <mxPoint x="566" y="87" />
            </Array>
          </mxGeometry>
        </mxCell>
        <mxCell id="YTvPQhcSVhC1iMUmIEsR-3" value="Humedad normal" style="text;html=1;align=center;verticalAlign=middle;resizable=0;points=[];autosize=1;strokeColor=none;fillColor=none;" vertex="1" parent="1">
          <mxGeometry x="592" y="65" width="110" height="26" as="geometry" />
        </mxCell>
        <mxCell id="YTvPQhcSVhC1iMUmIEsR-4" value="Humedad baja detectada" style="text;html=1;align=center;verticalAlign=middle;resizable=0;points=[];autosize=1;strokeColor=none;fillColor=none;" vertex="1" parent="1">
          <mxGeometry x="675" y="212" width="152" height="26" as="geometry" />
        </mxCell>
        <mxCell id="YTvPQhcSVhC1iMUmIEsR-5" value="Humedad alta detectada" style="text;html=1;align=center;verticalAlign=middle;resizable=0;points=[];autosize=1;strokeColor=none;fillColor=none;" vertex="1" parent="1">
          <mxGeometry x="321" y="210" width="149" height="26" as="geometry" />
        </mxCell>
        <mxCell id="YTvPQhcSVhC1iMUmIEsR-6" value="Alerta enviada" style="text;html=1;align=center;verticalAlign=middle;resizable=0;points=[];autosize=1;strokeColor=none;fillColor=none;rotation=35;" vertex="1" parent="1">
          <mxGeometry x="594" y="238" width="95" height="26" as="geometry" />
        </mxCell>
        <mxCell id="YTvPQhcSVhC1iMUmIEsR-7" value="" style="endArrow=open;endFill=1;endSize=12;html=1;rounded=0;exitX=1;exitY=1;exitDx=0;exitDy=0;entryX=0.5;entryY=0;entryDx=0;entryDy=0;" edge="1" parent="1" source="pi2D3oXFRqkSUvg6BYlz-3" target="pi2D3oXFRqkSUvg6BYlz-8">
          <mxGeometry width="160" relative="1" as="geometry">
            <mxPoint x="477" y="288" as="sourcePoint" />
            <mxPoint x="637" y="288" as="targetPoint" />
          </mxGeometry>
        </mxCell>
        <mxCell id="YTvPQhcSVhC1iMUmIEsR-8" value="" style="endArrow=open;endFill=1;endSize=12;html=1;rounded=0;exitX=0;exitY=1;exitDx=0;exitDy=0;entryX=0.5;entryY=0;entryDx=0;entryDy=0;" edge="1" parent="1" source="pi2D3oXFRqkSUvg6BYlz-3" target="pi2D3oXFRqkSUvg6BYlz-7">
          <mxGeometry width="160" relative="1" as="geometry">
            <mxPoint x="353" y="255" as="sourcePoint" />
            <mxPoint x="513" y="255" as="targetPoint" />
          </mxGeometry>
        </mxCell>
        <mxCell id="YTvPQhcSVhC1iMUmIEsR-9" value="" style="endArrow=open;endFill=1;endSize=12;html=1;rounded=0;exitX=0.75;exitY=0;exitDx=0;exitDy=0;entryX=0.25;entryY=1;entryDx=0;entryDy=0;" edge="1" parent="1" source="pi2D3oXFRqkSUvg6BYlz-7" target="pi2D3oXFRqkSUvg6BYlz-3">
          <mxGeometry width="160" relative="1" as="geometry">
            <mxPoint x="509" y="300" as="sourcePoint" />
            <mxPoint x="669" y="300" as="targetPoint" />
          </mxGeometry>
        </mxCell>
        <mxCell id="YTvPQhcSVhC1iMUmIEsR-10" value="" style="endArrow=open;endFill=1;endSize=12;html=1;rounded=0;entryX=0.75;entryY=1;entryDx=0;entryDy=0;exitX=0.25;exitY=0;exitDx=0;exitDy=0;" edge="1" parent="1" source="pi2D3oXFRqkSUvg6BYlz-8" target="pi2D3oXFRqkSUvg6BYlz-3">
          <mxGeometry width="160" relative="1" as="geometry">
            <mxPoint x="516" y="285" as="sourcePoint" />
            <mxPoint x="676" y="285" as="targetPoint" />
          </mxGeometry>
        </mxCell>
        <mxCell id="YTvPQhcSVhC1iMUmIEsR-11" value="Alerta enviada" style="text;html=1;align=center;verticalAlign=middle;resizable=0;points=[];autosize=1;strokeColor=none;fillColor=none;rotation=-45;" vertex="1" parent="1">
          <mxGeometry x="460" y="230" width="95" height="26" as="geometry" />
        </mxCell>
      </root>
    </mxGraphModel>
  </diagram>
</mxfile>
